PathFileType	4	(X/Y/Z)	C:/Users/beibeiliu/ov580/test_trc\sequence.17_training_dense_right.trc
DataRate	CameraRate	NumFrames	NumMarkers	Units	OrigDataRate	OrigDataStartFrame	OrigNumFrames
120	120	23	19	mm	120	190	303
Frame#	Time	ThumbCMC			ThumbMCP			ThumbIP			ThumbTip			IndexMCP			IndexPIP			IndexTip			MiddleMCP			MiddlePIP			MiddleTip			RingMCP			RingPIP			RingTip			PinkyMCP			PinkyPIP			PinkyTip			BackHand1			BackHand2			BackHand3	
		X0	Y0	Z0	X1	Y1	Z1	X2	Y2	Z2	X3	Y3	Z3	X4	Y4	Z4	X5	Y5	Z5	X6	Y6	Z6	X7	Y7	Z7	X8	Y8	Z8	X9	Y9	Z9	X10	Y10	Z10	X11	Y11	Z11	X12	Y12	Z12	X13	Y13	Z13	X14	Y14	Z14	X15	Y15	Z15	X16	Y16	Z16	X17	Y17	Z17	X18	Y18	Z18	
189	1.575	254.156	16.7428	11.9383	226.752	18.1768	10.0825	205.394	22.4293	0.834018	194.24	29.0449	-4.36197	221.415	-27.9628	-20.569	192.101	-35.5128	-18.2858	172.451	-34.123	-6.30316	213.241	-39.6312	-1.64686	199.285	-22.9515	21.4318	224.527	-6.7673	28.1145	217.205	-43.098	17.9562	215.028	-22.489	32.6341	240.691	-12.4711	35.2571	231.886	-52.3577	32.1564	227.386	-25.9863	38.2797	247.278	-16.569	32.9768	270.956	-40.327	13.0161	289.585	-22.8841	23.3671	273.996	-9.14723	2.63187	
190	1.58333	258.376	16.7203	15.8307	228.303	19.059	11.3408	209.827	25.3444	3.8138	196.808	34.9293	-5.1063	216.282	-24.8922	-21.1272	191.116	-30.4201	-18.5902	167.599	-31.4837	-8.38687	213.009	-36.4347	-1.28318	197.739	-21.4838	23.4028	226.177	-6.71901	29.8347	213.172	-39.3419	18.8589	212.438	-20.2975	33.8078	241.736	-10.2802	33.9015	226.524	-48.8091	28.2705	222.685	-25.5321	40.2805	245.174	-16.9422	35.5177	264.077	-42.6468	13.4916	287.787	-25.441	26.5142	272.615	-10.1336	2.6745	
191	1.59167	255.489	12.2515	14.2378	231.873	18.5918	15.0518	209.35	29.5653	1.86147	203.526	39.7247	-1.20682	211.807	-25.7468	-18.1512	189.601	-27.2116	-17.9925	168.196	-25.622	-12.9109	204.651	-33.6633	2.06948	193.972	-18.9973	22.6917	222.752	-3.25543	29.8505	212.145	-40.467	18.8886	209.697	-17.2345	33.9497	236.777	-8.60186	32.9967	219.041	-48.0342	33.1567	220.426	-24.6392	44.7967	243.731	-16.3276	33.1289	261.781	-40.8851	11.4118	283.017	-27.8106	26.3214	268.334	-16.7542	4.69707	
192	1.6	256.717	13.1097	14.7438	231.228	24.4381	13.5709	211.976	28.2906	2.47083	206.183	42.4774	-1.40174	211.856	-19.2216	-20.5118	190.358	-24.5535	-17.3216	162.877	-21.2791	-12.0565	202.74	-30.8602	1.90081	193.325	-12.2183	22.2886	222.117	0.0285842	29.8599	205.358	-33.9581	18.9208	206.585	-16.4165	36.8088	236.12	-7.16155	32.0583	213.939	-42.1838	30.3633	216.872	-21.0209	43.672	240.646	-16.1768	39.7663	256.61	-42.3623	14.6868	277.57	-31.8156	25.1693	271.032	-15.1993	6.52381	
193	1.60833	259.468	10.5721	19.0425	230.185	23.5262	12.244	217.183	32.7993	6.69499	208.117	45.4724	-1.75245	212.936	-17.6315	-19.0094	187.848	-18.1433	-19.3378	161.433	-12.771	-14.1406	199.985	-24.7051	1.16569	189.84	-8.80633	19.8208	219.23	1.36748	29.8319	205.311	-35.2963	18.4529	205.549	-10.4414	33.8211	234.619	-6.55115	33.7539	211.146	-44.8725	34.5737	214.786	-18.9001	45.3419	239.813	-17.0791	39.3878	250.853	-47.4854	14.4768	276.838	-38.3891	30.7872	268.913	-18.5301	8.71771	
194	1.61667	258.69	11.1686	17.5872	233.151	25.3036	13.5468	216.941	35.5948	3.96091	209.546	45.7888	-0.777049	206.537	-18.4923	-17.9215	183.321	-14.3534	-18.8323	162.184	-11.2275	-11.6633	195.418	-23.7116	2.64711	189.399	-6.27785	24.4272	219.72	1.62192	31.7795	200.042	-30.59	19.6804	201.706	-10.6209	36.3434	229.215	-6.97262	38.6985	204.361	-36.8817	31.5331	208.748	-19.5775	45.3987	232.319	-13.7759	37.3058	245.332	-45.2762	15.3568	271.561	-40.6657	29.4075	264.402	-21.4344	6.43422	
195	1.625	255.497	5.76277	17.1438	231.209	22.1764	13.789	217.881	33.9421	7.27155	207.381	45.2848	-1.13645	203.27	-15.7694	-17.3759	180.512	-10.075	-19.1196	156.556	-0.456314	-13.4824	193.647	-18.7975	0.777657	188.243	-0.589007	23.1352	217.125	0.264831	34.0461	195.087	-28.3943	22.1966	198.427	-8.3592	36.5833	227.681	-6.334	37.7232	198.842	-36.2773	33.89	205.479	-17.6485	46.8363	232.285	-13.731	36.1833	243.144	-43.6061	17.2442	265.297	-42.4988	31.7877	260.829	-24.6691	10.2394	
196	1.63333	254.933	4.47991	18.6418	230.841	21.6899	14.4308	216.966	33.7044	8.0218	211.189	49.049	0.697025	199.416	-14.0621	-18.2764	178.017	-7.34942	-17.1558	156.086	2.86763	-13.3006	189.151	-17.2945	3.77577	186.37	1.47235	25.5373	219.941	0.441977	31.6917	191.679	-25.4827	19.4239	196.309	-6.08207	38.9557	224.739	-7.47235	40.0276	196.578	-34.5837	32.2283	205.436	-13.935	46.3263	228.593	-13.3866	43.7294	235.223	-50.826	18.0302	262.07	-45.7102	35.173	255.553	-27.9647	10.5371	
197	1.64167	253.867	2.3922	19.8948	229.651	22.7826	13.6195	216.335	35.7484	6.13383	210.117	46.8307	3.46313	198.251	-13.2048	-16.1396	172.307	-5.25656	-15.3588	154.748	1.7849	-9.63357	189.656	-17.5812	1.73097	181.724	2.24323	23.0741	217.264	-1.45917	32.5016	188.902	-23.8737	19.398	195.234	-5.61294	39.9284	221.025	-6.13322	38.1745	191.315	-38.0331	36.0902	201.49	-14.1243	46.3664	223.487	-16.2153	39.5628	230.108	-48.492	18.062	259.255	-44.8812	33.0824	253.876	-28.0765	7.39916	
198	1.65	250.906	-0.867217	20.4819	231.409	17.4846	18.5654	217.281	34.0315	7.74743	213.661	50.8786	0.961047	198.209	-11.9431	-17.2209	171	-4.76106	-14.4356	149.616	8.23359	-11.821	183.815	-18.7701	5.75627	182.407	5.53828	24.3391	213.758	0.701942	32.8119	185.488	-25.7928	21.863	192.855	-3.90043	39.2685	217.059	-6.90442	37.7887	186.786	-35.1201	35.213	198.192	-15.0005	47.8417	220.378	-16.822	43.178	227.905	-49.5892	19.6099	251.869	-48.7168	29.0266	249.412	-31.9813	11.3286	
199	1.65833	246.245	-1.77503	19.6046	228.353	21.5138	15.5396	215.14	34.1533	6.70311	213.602	49.0599	2.14397	191.747	-10.9935	-14.7274	173.129	-0.187381	-17.4929	151.905	8.38607	-11.1743	181.05	-14.7069	4.42623	178.914	5.70066	23.7078	211.487	-2.93821	33.7688	181.826	-23.7768	21.3435	189.737	-2.17313	36.7266	216.96	-10.6754	39.6679	184.003	-36.461	34.7425	194.453	-13.3912	47.2335	217.803	-17.4811	41.3606	220.998	-51.4992	18.2925	249.369	-50.5218	32.67	248.707	-29.9498	8.11666	
200	1.66667	247.18	-2.1995	23.34	231.019	18.2534	21.2688	217.936	35.7305	8.42443	217.614	50.3806	3.80852	194.953	-7.19289	-16.6421	170.471	2.46318	-16.9521	151.385	13.4463	-11.7062	179.566	-12.2732	5.38545	177.646	5.63189	26.267	209.3	-1.95613	35.2467	178.192	-21.9179	20.675	187.042	-3.59723	39.9438	215.056	-12.361	41.358	179.442	-34.7884	34.3182	191.765	-12.3258	45.1656	216.068	-17.7516	42.1936	221.746	-48.1291	15.0903	245.942	-53.7793	35.1809	244.183	-32.5135	10.5494	
201	1.675	249.932	-1.75716	25.3812	231.535	21.1388	18.8888	222.889	34.8487	11.065	219.635	50.7409	4.24747	195.779	-4.73055	-16.6795	170.322	5.1939	-17.1456	152.625	18.8735	-13.1787	179.56	-10.879	5.181	178.969	11.5341	24.676	211.152	-0.918796	33.9431	177.565	-21.7743	19.9091	182.213	-3.07783	39.9075	211.993	-7.70376	40.0675	178.406	-32.7093	31.93	185.721	-12.3871	46.5088	212.568	-18.1808	42.6377	215.622	-50.4076	18.3817	241.566	-52.2523	31.5617	244.497	-29.2839	13.3864	
202	1.68333	245.149	-3.05717	24.7594	231.933	19.4007	21.463	222.596	37.477	9.42595	217.583	50.6468	1.97956	192.1	-0.794502	-18.8877	170.431	9.65003	-17.4452	151.335	22.9302	-12.5386	181.715	-7.06453	2.22015	177.635	11.3334	27.3264	206.613	3.64385	34.8197	175.865	-14.8648	17.5176	184.061	0.26704	39.7838	208.487	-8.06695	42.4297	173.72	-29.1924	32.3062	184.448	-9.53541	44.1559	210.107	-17.5369	45.5768	215.196	-50.3862	18.0173	234.297	-54.0761	34.4558	239.797	-31.8325	13.5182	
203	1.69167	245.035	-0.811543	22.997	234.022	21.2117	21.0217	222.085	37.1358	10.192	220.785	53.4396	2.77129	190.696	1.81492	-18.2508	172.002	14.7631	-19.6853	151.576	32.3936	-13.2779	176.159	-2.70015	3.36622	176.778	13.4162	26.1361	205.098	0.112604	36.9018	172.681	-14.517	18.9738	184.121	2.43935	39.8256	208.112	-11.6258	42.4719	171.355	-23.0021	30.226	184.664	-8.48428	43.7935	206.38	-16.1257	45.0996	211.103	-48.1141	16.2186	233.061	-56.6977	36.3517	237.256	-32.2747	10.3694	
204	1.7	244.408	-3.56613	27.6738	230.86	19.5789	22.0927	225.632	38.7086	11.2538	223.956	52.9675	6.46988	188.778	1.71892	-18.0201	171.009	19.0263	-19.2345	151.156	34.3781	-10.1135	175.578	-1.69274	3.36852	174.61	13.5672	27.1383	204.753	4.14364	36.8251	171.126	-8.17368	17.5696	181.82	2.34267	41.4984	207.485	-8.83095	40.2112	170.268	-22.6985	28.0578	180.762	-8.80508	46.9125	204.019	-15.3986	44.9645	207.983	-45.5245	17.5933	228.157	-53.9424	33.3338	235.199	-31.5356	12.8457	
205	1.70833	242.285	-2.91212	26.7287	236.765	21.7323	23.3137	228.348	39.4702	13.29	225.001	54.273	5.71105	188.658	6.11002	-17.1721	170.243	23.7495	-18.0934	157.098	37.4083	-12.3109	176.988	-0.266079	2.45756	174.038	17.4252	25.5505	204.285	2.00865	36.8066	167.97	-5.91209	18.2705	179.504	7.32829	37.3524	204.075	-5.49137	39.6148	170.274	-20.285	25.9256	178.792	-3.97451	44.3521	203.947	-14.7475	43.3143	203.18	-46.0592	15.5569	228.206	-51.9583	32.2329	231.776	-32.1967	11.6199	
206	1.71667	241.953	-3.6699	24.4771	235.148	23.0725	21.7169	230.197	43.4725	12.3085	230.484	57.1182	7.24874	188.382	8.58569	-17.0391	172.987	26.5022	-17.6574	156.503	44.0833	-10.6961	176.641	4.02318	0.951592	173.475	21.9472	26.1501	202.962	7.269	36.601	169.328	-4.36935	16.5607	181.605	9.43522	40.5221	204.255	-8.59439	40.9754	167.773	-15.1291	27.0226	181.788	0.299898	43.098	201.713	-13.0716	42.3129	202.618	-40.4309	13.5123	219.581	-51.5065	30.8456	227.295	-30.7467	11.9091	
207	1.725	242.887	-5.32999	26.8411	234.49	21.3608	22.4734	234.721	43.2544	13.3169	235.228	57.2302	9.84481	190.688	13.2203	-18.0334	172.881	29.3647	-17.5851	161.335	47.4302	-11.5487	175.212	12.287	2.6462	175.096	26.1934	25.2555	204.449	9.85502	35.6223	170.187	-0.914797	16.6611	183.302	12.0894	40.5994	202.406	-3.56709	41.7455	167.895	-11.9228	27.1784	181.406	0.249681	47.0074	201.481	-12.7386	40.4848	199.849	-39.7701	13.5703	218.551	-54.118	32.9052	228.363	-32.2718	12.2537	
208	1.73333	242.545	-4.55941	26.3678	239.129	21.0241	25.0473	234.86	42.3059	14.5448	238.59	59.3696	7.84782	193.828	14.1279	-17.6898	179.03	31.3351	-18.6218	161.197	54.3658	-11.4707	177.158	14.522	1.24727	175.298	28.2831	25.9015	201.321	11.227	37.9429	171.382	3.60786	15.1681	180.27	16.4382	35.4798	202.234	-2.11593	41.621	167.165	-4.99362	29.4825	179.058	2.47526	46.6947	201.158	-11.3353	40.6283	199.176	-36.5136	14.6241	216.252	-50.7115	29.4144	223.886	-30	10.4421	
209	1.74167	244.601	-4.83638	28.1931	237.782	21.1401	25.0775	236.602	39.5946	17.3948	241.181	58.1484	10.0036	196.783	13.7518	-16.1478	178.545	33.3897	-16.4935	165.898	51.2677	-11.5801	178.173	11.5066	1.29666	176.468	29.2122	25.7984	203.306	13.969	36.4933	171.388	5.39794	15.1136	183.892	14.8484	40.8356	203.407	-6.00826	40.9865	167.374	-4.49801	27.8628	184.067	4.07321	44.4159	201.628	-12.1649	40.6092	194.328	-37.4545	14.831	213.026	-50.8256	32.649	222.692	-31.0362	13.1927	
210	1.75	241.233	-9.75681	30.5889	236.566	19.2123	25.0381	237.834	39.685	17.3827	244.886	52.4282	15.3784	198.064	17.5632	-17.2078	183.245	34.1023	-17.3657	171.187	59.7126	-10.7886	177.967	16.8995	1.36548	182.35	33.7367	23.6111	202.305	15.0107	37.6634	172.506	4.96191	13.9876	185.313	17.5677	36.8642	204.62	-0.929318	39.951	166.786	-6.96219	25.7377	182.295	5.03412	42.9123	200.216	-11.9285	39.2306	198.57	-35.3739	14.1478	215.511	-52.5685	31.953	226.486	-31.9343	13.3557	
211	1.75833	245.11	-7.3485	30.2623	245.16	16.8209	29.4701	247.333	37.8757	19.6693	253.893	51.6449	16.3448	201.533	21.128	-17.3725	189.035	39.9738	-18.1279	177.613	63.5938	-9.4036	184.918	17.2694	-2.41508	183.084	34.121	21.3405	203.941	15.3971	37.2416	176.274	11.5506	13.8291	184.737	18.1291	38.9058	202.705	-3.03772	41.9393	167.818	-1.47879	25.3239	180.545	8.10235	40.443	200.848	-12.9465	40.5525	197.929	-33.6006	10.557	211.174	-51.1526	32.9307	224.715	-31.9177	11.6398	
